<?xml version="1.0" standalone="no"?><!DOCTYPE svg PUBLIC "-//W3C//DTD SVG 1.1//EN" "http://www.w3.org/Graphics/SVG/1.1/DTD/svg11.dtd"><svg t="1725638897774" class="icon" viewBox="0 0 1024 1024" version="1.1" xmlns="http://www.w3.org/2000/svg" p-id="4339" xmlns:xlink="http://www.w3.org/1999/xlink" width="64" height="64"><path d="M0.597211 512.014627A511.950268 511.950268 0 1 0 512.547479 0.064359 510.926367 510.926367 0 0 0 0.597211 512.014627z" fill="#FFFFFF" p-id="4340"></path><path d="M512.547479 18.348298a494.105144 494.105144 0 0 0-349.36949 843.035819A494.105144 494.105144 0 0 0 861.916969 162.645137 490.631196 490.631196 0 0 0 512.547479 18.348298m0-18.283939A511.950268 511.950268 0 1 1 0.597211 512.014627 510.926367 510.926367 0 0 1 512.547479 0.064359z" fill="#DEDEDE" p-id="4341"></path><path d="M431.25709 1017.528949a512.718193 512.718193 0 0 0 563.949788-334.486365H431.25709z" fill="#231815" p-id="4342"></path><path d="M431.25709 341.571756h564.169195A512.718193 512.718193 0 0 0 431.25709 6.500306z" fill="#009C42" p-id="4343"></path><path d="M431.25709 341.571756V6.500306a511.950268 511.950268 0 0 0 0 1011.06521z" fill="#CC303C" p-id="4344"></path></svg>